<mxfile host="app.diagrams.net" modified="2023-07-27T20:34:32.333Z" agent="Mozilla/5.0 (X11; Ubuntu; Linux x86_64; rv:109.0) Gecko/20100101 Firefox/115.0" etag="qSC4elj6rQkzi-UtNTcD" version="21.1.2" type="device">
  <diagram name="Strona-1" id="GYCSGjYCseN1pKUg0cuR">
    <mxGraphModel dx="1088" dy="1782" grid="1" gridSize="10" guides="1" tooltips="1" connect="1" arrows="1" fold="1" page="1" pageScale="1" pageWidth="827" pageHeight="1169" math="0" shadow="0">
      <root>
        <mxCell id="0" />
        <mxCell id="1" parent="0" />
        <mxCell id="PsTR37EE0edYduBBshiX-19" value="&lt;div style=&quot;font-size: 16px;&quot;&gt;&lt;font style=&quot;font-size: 16px;&quot;&gt;Meta JSON Parser&lt;/font&gt;&lt;/div&gt;&lt;div style=&quot;font-size: 16px;&quot;&gt;&lt;font style=&quot;font-size: 16px;&quot;&gt;&lt;br&gt;&lt;/font&gt;&lt;/div&gt;&lt;div style=&quot;font-size: 16px;&quot;&gt;&lt;font style=&quot;font-size: 16px;&quot;&gt;&lt;br&gt;&lt;/font&gt;&lt;/div&gt;&lt;div style=&quot;font-size: 16px;&quot;&gt;&lt;font style=&quot;font-size: 16px;&quot;&gt;&lt;br&gt;&lt;/font&gt;&lt;/div&gt;&lt;div style=&quot;font-size: 16px;&quot;&gt;&lt;font style=&quot;font-size: 16px;&quot;&gt;&lt;br&gt;&lt;/font&gt;&lt;/div&gt;&lt;div style=&quot;font-size: 16px;&quot;&gt;&lt;font style=&quot;font-size: 16px;&quot;&gt;&lt;br&gt;&lt;/font&gt;&lt;/div&gt;&lt;div style=&quot;font-size: 16px;&quot;&gt;&lt;font style=&quot;font-size: 16px;&quot;&gt;&lt;br&gt;&lt;/font&gt;&lt;/div&gt;&lt;div style=&quot;font-size: 16px;&quot;&gt;&lt;font style=&quot;font-size: 16px;&quot;&gt;&lt;br&gt;&lt;/font&gt;&lt;/div&gt;&lt;div style=&quot;font-size: 16px;&quot;&gt;&lt;font style=&quot;font-size: 16px;&quot;&gt;&lt;br&gt;&lt;/font&gt;&lt;/div&gt;&lt;div style=&quot;font-size: 16px;&quot;&gt;&lt;font style=&quot;font-size: 16px;&quot;&gt;&lt;br&gt;&lt;/font&gt;&lt;/div&gt;&lt;div style=&quot;font-size: 16px;&quot;&gt;&lt;font style=&quot;font-size: 16px;&quot;&gt;&lt;br&gt;&lt;/font&gt;&lt;/div&gt;&lt;div style=&quot;font-size: 16px;&quot;&gt;&lt;font style=&quot;font-size: 16px;&quot;&gt;&lt;br&gt;&lt;/font&gt;&lt;/div&gt;&lt;div style=&quot;font-size: 16px;&quot;&gt;&lt;font style=&quot;font-size: 16px;&quot;&gt;&lt;br&gt;&lt;/font&gt;&lt;/div&gt;&lt;div style=&quot;font-size: 16px;&quot;&gt;&lt;font style=&quot;font-size: 16px;&quot;&gt;&lt;br&gt;&lt;/font&gt;&lt;/div&gt;" style="whiteSpace=wrap;html=1;shape=mxgraph.basic.cloud_rect;strokeColor=#666666;" vertex="1" parent="1">
          <mxGeometry x="290" y="-60" width="360" height="310" as="geometry" />
        </mxCell>
        <mxCell id="PsTR37EE0edYduBBshiX-16" value="&lt;div style=&quot;font-size: 14px;&quot;&gt;&lt;font style=&quot;font-size: 14px;&quot;&gt;NVIDIA Merlin&lt;/font&gt;&lt;/div&gt;&lt;div style=&quot;font-size: 14px;&quot;&gt;&lt;font style=&quot;font-size: 14px;&quot;&gt;&lt;br&gt;&lt;/font&gt;&lt;/div&gt;&lt;div style=&quot;font-size: 14px;&quot;&gt;&lt;font style=&quot;font-size: 14px;&quot;&gt;&lt;br&gt;&lt;/font&gt;&lt;/div&gt;&lt;div style=&quot;font-size: 14px;&quot;&gt;&lt;font style=&quot;font-size: 14px;&quot;&gt;&lt;br&gt;&lt;/font&gt;&lt;/div&gt;&lt;div style=&quot;font-size: 14px;&quot;&gt;&lt;font style=&quot;font-size: 14px;&quot;&gt;&lt;br&gt;&lt;/font&gt;&lt;/div&gt;&lt;div style=&quot;font-size: 14px;&quot;&gt;&lt;font style=&quot;font-size: 14px;&quot;&gt;&lt;br&gt;&lt;/font&gt;&lt;/div&gt;&lt;div style=&quot;font-size: 14px;&quot;&gt;&lt;font style=&quot;font-size: 14px;&quot;&gt;&lt;br&gt;&lt;/font&gt;&lt;/div&gt;" style="whiteSpace=wrap;html=1;shape=mxgraph.basic.cloud_rect;strokeWidth=1;strokeColor=#666666;" vertex="1" parent="1">
          <mxGeometry x="445" y="-10" width="180" height="140" as="geometry" />
        </mxCell>
        <mxCell id="PsTR37EE0edYduBBshiX-28" style="edgeStyle=orthogonalEdgeStyle;rounded=0;orthogonalLoop=1;jettySize=auto;html=1;exitX=1;exitY=0.5;exitDx=0;exitDy=0;" edge="1" parent="1" source="PsTR37EE0edYduBBshiX-1" target="PsTR37EE0edYduBBshiX-20">
          <mxGeometry relative="1" as="geometry">
            <Array as="points">
              <mxPoint x="240" y="205" />
              <mxPoint x="240" y="205" />
            </Array>
          </mxGeometry>
        </mxCell>
        <mxCell id="PsTR37EE0edYduBBshiX-1" value="GDS installation on the cluster" style="ellipse;whiteSpace=wrap;html=1;" vertex="1" parent="1">
          <mxGeometry x="100" y="160" width="130" height="90" as="geometry" />
        </mxCell>
        <mxCell id="PsTR37EE0edYduBBshiX-2" value="" style="ellipse;html=1;shape=startState;fillColor=#000000;strokeColor=#000000;" vertex="1" parent="1">
          <mxGeometry x="50" y="190" width="30" height="30" as="geometry" />
        </mxCell>
        <mxCell id="PsTR37EE0edYduBBshiX-4" value="Integration of the&lt;br&gt;Meta JSON Parser with RAPIDS" style="ellipse;whiteSpace=wrap;html=1;" vertex="1" parent="1">
          <mxGeometry x="310" y="80" width="130" height="90" as="geometry" />
        </mxCell>
        <mxCell id="PsTR37EE0edYduBBshiX-25" style="edgeStyle=orthogonalEdgeStyle;rounded=0;orthogonalLoop=1;jettySize=auto;html=1;entryX=0;entryY=0.5;entryDx=0;entryDy=0;" edge="1" parent="1" source="PsTR37EE0edYduBBshiX-5" target="PsTR37EE0edYduBBshiX-37">
          <mxGeometry relative="1" as="geometry">
            <mxPoint x="570" y="430" as="targetPoint" />
            <Array as="points">
              <mxPoint x="580" y="405" />
              <mxPoint x="580" y="405" />
            </Array>
          </mxGeometry>
        </mxCell>
        <mxCell id="PsTR37EE0edYduBBshiX-5" value="&lt;br&gt;Deep learning GDS performance benchmark featuring image data" style="ellipse;whiteSpace=wrap;html=1;" vertex="1" parent="1">
          <mxGeometry x="390" y="360" width="130" height="90" as="geometry" />
        </mxCell>
        <mxCell id="PsTR37EE0edYduBBshiX-40" style="edgeStyle=orthogonalEdgeStyle;rounded=0;orthogonalLoop=1;jettySize=auto;html=1;" edge="1" parent="1" source="PsTR37EE0edYduBBshiX-6" target="PsTR37EE0edYduBBshiX-39">
          <mxGeometry relative="1" as="geometry" />
        </mxCell>
        <mxCell id="PsTR37EE0edYduBBshiX-6" value="Standalone data transfer GDS performance benchmarks" style="ellipse;whiteSpace=wrap;html=1;" vertex="1" parent="1">
          <mxGeometry x="470" y="150" width="130" height="90" as="geometry" />
        </mxCell>
        <mxCell id="PsTR37EE0edYduBBshiX-41" style="edgeStyle=orthogonalEdgeStyle;rounded=0;orthogonalLoop=1;jettySize=auto;html=1;entryX=0;entryY=0.5;entryDx=0;entryDy=0;" edge="1" parent="1" source="PsTR37EE0edYduBBshiX-7" target="PsTR37EE0edYduBBshiX-38">
          <mxGeometry relative="1" as="geometry" />
        </mxCell>
        <mxCell id="PsTR37EE0edYduBBshiX-7" value="&lt;p style=&quot;line-height: 120%;&quot; align=&quot;center&quot;&gt;&lt;font style=&quot;font-size: 11px;&quot;&gt;&lt;br&gt;Deep learning GDS, multi-GPU, multi-node performance&lt;br&gt;benchmarks&lt;br&gt;&lt;/font&gt;&lt;/p&gt;" style="ellipse;whiteSpace=wrap;html=1;align=center;" vertex="1" parent="1">
          <mxGeometry x="470" y="20" width="130" height="90" as="geometry" />
        </mxCell>
        <mxCell id="PsTR37EE0edYduBBshiX-24" style="edgeStyle=orthogonalEdgeStyle;rounded=0;orthogonalLoop=1;jettySize=auto;html=1;entryX=0;entryY=0.5;entryDx=0;entryDy=0;" edge="1" parent="1" source="PsTR37EE0edYduBBshiX-8" target="PsTR37EE0edYduBBshiX-36">
          <mxGeometry relative="1" as="geometry" />
        </mxCell>
        <mxCell id="PsTR37EE0edYduBBshiX-8" value="GDS synthetic data transfer benchmarks" style="ellipse;whiteSpace=wrap;html=1;" vertex="1" parent="1">
          <mxGeometry x="390" y="260" width="130" height="90" as="geometry" />
        </mxCell>
        <mxCell id="PsTR37EE0edYduBBshiX-9" value="" style="endArrow=classic;html=1;rounded=0;entryX=0;entryY=0.5;entryDx=0;entryDy=0;" edge="1" parent="1" source="PsTR37EE0edYduBBshiX-20" target="PsTR37EE0edYduBBshiX-8">
          <mxGeometry width="50" height="50" relative="1" as="geometry">
            <mxPoint x="250" y="190" as="sourcePoint" />
            <mxPoint x="300" y="140" as="targetPoint" />
          </mxGeometry>
        </mxCell>
        <mxCell id="PsTR37EE0edYduBBshiX-10" value="" style="endArrow=classic;html=1;rounded=0;entryX=0;entryY=0.5;entryDx=0;entryDy=0;" edge="1" parent="1" source="PsTR37EE0edYduBBshiX-20" target="PsTR37EE0edYduBBshiX-5">
          <mxGeometry width="50" height="50" relative="1" as="geometry">
            <mxPoint x="250" y="410" as="sourcePoint" />
            <mxPoint x="300" y="360" as="targetPoint" />
          </mxGeometry>
        </mxCell>
        <mxCell id="PsTR37EE0edYduBBshiX-11" value="" style="endArrow=classic;html=1;rounded=0;entryX=0;entryY=0.5;entryDx=0;entryDy=0;" edge="1" parent="1" source="PsTR37EE0edYduBBshiX-20" target="PsTR37EE0edYduBBshiX-4">
          <mxGeometry width="50" height="50" relative="1" as="geometry">
            <mxPoint x="250" y="220" as="sourcePoint" />
            <mxPoint x="300" y="170" as="targetPoint" />
          </mxGeometry>
        </mxCell>
        <mxCell id="PsTR37EE0edYduBBshiX-12" value="" style="endArrow=classic;html=1;rounded=0;" edge="1" parent="1" source="PsTR37EE0edYduBBshiX-4" target="PsTR37EE0edYduBBshiX-6">
          <mxGeometry width="50" height="50" relative="1" as="geometry">
            <mxPoint x="430" y="200" as="sourcePoint" />
            <mxPoint x="480" y="150" as="targetPoint" />
          </mxGeometry>
        </mxCell>
        <mxCell id="PsTR37EE0edYduBBshiX-13" value="" style="endArrow=classic;html=1;rounded=0;" edge="1" parent="1" source="PsTR37EE0edYduBBshiX-4" target="PsTR37EE0edYduBBshiX-7">
          <mxGeometry width="50" height="50" relative="1" as="geometry">
            <mxPoint x="440" y="170" as="sourcePoint" />
            <mxPoint x="490" y="120" as="targetPoint" />
          </mxGeometry>
        </mxCell>
        <mxCell id="PsTR37EE0edYduBBshiX-20" value="" style="line;strokeWidth=4;direction=south;html=1;perimeter=backbonePerimeter;points=[];outlineConnect=0;" vertex="1" parent="1">
          <mxGeometry x="250" y="20" width="10" height="410" as="geometry" />
        </mxCell>
        <mxCell id="PsTR37EE0edYduBBshiX-23" value="" style="line;strokeWidth=4;direction=south;html=1;perimeter=backbonePerimeter;points=[];outlineConnect=0;" vertex="1" parent="1">
          <mxGeometry x="810" y="20" width="10" height="410" as="geometry" />
        </mxCell>
        <mxCell id="PsTR37EE0edYduBBshiX-29" value="" style="ellipse;html=1;shape=endState;fillColor=#000000;strokeColor=#000000;" vertex="1" parent="1">
          <mxGeometry x="840" y="190" width="30" height="30" as="geometry" />
        </mxCell>
        <mxCell id="PsTR37EE0edYduBBshiX-31" value="" style="endArrow=classic;html=1;rounded=0;entryX=0;entryY=0.5;entryDx=0;entryDy=0;" edge="1" parent="1" source="PsTR37EE0edYduBBshiX-23" target="PsTR37EE0edYduBBshiX-29">
          <mxGeometry width="50" height="50" relative="1" as="geometry">
            <mxPoint x="660" y="280" as="sourcePoint" />
            <mxPoint x="710" y="230" as="targetPoint" />
          </mxGeometry>
        </mxCell>
        <mxCell id="PsTR37EE0edYduBBshiX-32" style="edgeStyle=orthogonalEdgeStyle;rounded=0;orthogonalLoop=1;jettySize=auto;html=1;entryX=0;entryY=0.5;entryDx=0;entryDy=0;exitX=1;exitY=0.5;exitDx=0;exitDy=0;" edge="1" parent="1" source="PsTR37EE0edYduBBshiX-2" target="PsTR37EE0edYduBBshiX-1">
          <mxGeometry relative="1" as="geometry">
            <mxPoint x="240" y="265" as="sourcePoint" />
            <mxPoint x="263" y="265" as="targetPoint" />
            <Array as="points">
              <mxPoint x="80" y="205" />
            </Array>
          </mxGeometry>
        </mxCell>
        <mxCell id="PsTR37EE0edYduBBshiX-36" value="Analysis" style="ellipse;whiteSpace=wrap;html=1;" vertex="1" parent="1">
          <mxGeometry x="660" y="260" width="130" height="90" as="geometry" />
        </mxCell>
        <mxCell id="PsTR37EE0edYduBBshiX-37" value="Analysis" style="ellipse;whiteSpace=wrap;html=1;" vertex="1" parent="1">
          <mxGeometry x="660" y="360" width="130" height="90" as="geometry" />
        </mxCell>
        <mxCell id="PsTR37EE0edYduBBshiX-38" value="Analysis" style="ellipse;whiteSpace=wrap;html=1;" vertex="1" parent="1">
          <mxGeometry x="660" y="20" width="130" height="90" as="geometry" />
        </mxCell>
        <mxCell id="PsTR37EE0edYduBBshiX-45" style="edgeStyle=orthogonalEdgeStyle;rounded=0;orthogonalLoop=1;jettySize=auto;html=1;entryX=0.427;entryY=0.665;entryDx=0;entryDy=0;entryPerimeter=0;" edge="1" parent="1" source="PsTR37EE0edYduBBshiX-39" target="PsTR37EE0edYduBBshiX-23">
          <mxGeometry relative="1" as="geometry" />
        </mxCell>
        <mxCell id="PsTR37EE0edYduBBshiX-39" value="Analysis" style="ellipse;whiteSpace=wrap;html=1;" vertex="1" parent="1">
          <mxGeometry x="660" y="150" width="130" height="90" as="geometry" />
        </mxCell>
        <mxCell id="PsTR37EE0edYduBBshiX-46" style="edgeStyle=orthogonalEdgeStyle;rounded=0;orthogonalLoop=1;jettySize=auto;html=1;entryX=0.427;entryY=0.665;entryDx=0;entryDy=0;entryPerimeter=0;" edge="1" parent="1">
          <mxGeometry relative="1" as="geometry">
            <mxPoint x="790" y="304.95" as="sourcePoint" />
            <mxPoint x="813" y="304.95" as="targetPoint" />
          </mxGeometry>
        </mxCell>
        <mxCell id="PsTR37EE0edYduBBshiX-48" style="edgeStyle=orthogonalEdgeStyle;rounded=0;orthogonalLoop=1;jettySize=auto;html=1;entryX=0.427;entryY=0.665;entryDx=0;entryDy=0;entryPerimeter=0;" edge="1" parent="1">
          <mxGeometry relative="1" as="geometry">
            <mxPoint x="790" y="404.95" as="sourcePoint" />
            <mxPoint x="813" y="404.95" as="targetPoint" />
          </mxGeometry>
        </mxCell>
        <mxCell id="PsTR37EE0edYduBBshiX-49" style="edgeStyle=orthogonalEdgeStyle;rounded=0;orthogonalLoop=1;jettySize=auto;html=1;entryX=0.427;entryY=0.665;entryDx=0;entryDy=0;entryPerimeter=0;" edge="1" parent="1">
          <mxGeometry relative="1" as="geometry">
            <mxPoint x="790" y="64.94999999999999" as="sourcePoint" />
            <mxPoint x="813" y="64.94999999999999" as="targetPoint" />
          </mxGeometry>
        </mxCell>
      </root>
    </mxGraphModel>
  </diagram>
</mxfile>
